<?xml version="1.0" encoding="utf-8"?>
<!-- Generator: Adobe Illustrator 24.3.0, SVG Export Plug-In . SVG Version: 6.00 Build 0)  -->
<svg version="1.1" id="Layer_1" xmlns="http://www.w3.org/2000/svg" xmlns:xlink="http://www.w3.org/1999/xlink" x="0px" y="0px"
	 viewBox="0 0 230.6 230.6" style="enable-background:new 0 0 230.6 230.6;" xml:space="preserve">
<style type="text/css">
	.st0{fill:#00AEEF;}
</style>
<g id="Layer_10">
	<path class="st0" d="M155,0c0,0-60.4,12.8-75,72c-14.5,58.7,14,92,14,92s-39.9-33.6-29.8-92C82.7-0.9,155,0,155,0z"/>
</g>
<g id="Layer_10_copy">
	<path class="st0" d="M62.4,22.5C11,141.8,109.1,197.3,149.5,203c-79,2.7-105.3-59.8-105.3-59.8S10.2,83.2,62.4,22.5z"/>
</g>
<g id="Layer_12">
	<path class="st0" d="M20.5,98.1c20.7,127.3,145.8,128.4,190.3,106.1c-72.9,55-138.3,6.9-138.3,6.9S12.2,179.5,20.5,98.1z"/>
</g>
</svg>
