<svg xmlns="http://www.w3.org/2000/svg" viewBox="0 0 191.11 230.55"><defs><style>.cls-1{fill:#00aeef;}</style></defs><title>wave runners waves</title><g id="Layer_10" data-name="Layer 10"><path class="cls-1" d="M146.62,3.89s-60.43,12.78-75,72c-14.46,58.74,14,92,14,92s-39.87-33.58-29.79-92C74.24,3,146.62,3.89,146.62,3.89Z" transform="translate(-11.3 -3.89)"/></g><g id="Layer_10_copy" data-name="Layer 10 copy"><path class="cls-1" d="M54,26.35c-51.43,119.32,46.63,174.82,87.1,180.57C62.06,209.64,35.8,147.1,35.8,147.1S1.75,87.05,54,26.35Z" transform="translate(-11.3 -3.89)"/></g><g id="Layer_12" data-name="Layer 12"><path class="cls-1" d="M12.08,102C32.8,229.28,157.86,230.43,202.41,208.06c-72.93,55.05-138.34,6.86-138.34,6.86S3.83,183.43,12.08,102Z" transform="translate(-11.3 -3.89)"/></g></svg>